nColumns=28
nRows=60
DataType=double
version=3
OpenSimVersion=4.1
endheader
time	ground_force_1_vx	ground_force_1_vy	ground_force_1_vz	ground_force_1_px	ground_force_1_py	ground_force_1_pz	ground_force_1_mx	ground_force_1_my	ground_force_1_mz	ground_force_2_vx	ground_force_2_vy	ground_force_2_vz	ground_force_2_px	ground_force_2_py	ground_force_2_pz	ground_force_2_mx	ground_force_2_my	ground_force_2_mz	ground_force_3_vx	ground_force_3_vy	ground_force_3_vz	ground_force_3_px	ground_force_3_py	ground_force_3_pz	ground_force_3_mx	ground_force_3_my	ground_force_3_mz
9.76	-1.39006	238.9	-60.1728	-0.199468	0.006	-0.432862	0	-0.441631	0	-5.49187	252.457	62.0318	-0.187528	0.006	-0.973117	0	1.20094	0	0	0	0	0	0	0	0	0	0
9.77	-1.28839	238.875	-59.2794	-0.19955	0.006	-0.433129	0	-0.448482	0	-5.38297	254.166	61.2215	-0.188161	0.006	-0.9727	0	1.2751	0	0	0	0	0	0	0	0	0	0
9.78	-1.16639	239.108	-58.401	-0.199802	0.006	-0.433427	0	-0.46216	0	-5.28578	256.227	60.4382	-0.188901	0.006	-0.972249	0	1.3498	0	0	0	0	0	0	0	0	0	0
9.79	-1.03108	239.587	-57.5396	-0.200213	0.006	-0.433748	0	-0.481364	0	-5.18621	258.632	59.6811	-0.189748	0.006	-0.971767	0	1.42399	0	0	0	0	0	0	0	0	0	0
9.8	-0.890484	240.301	-56.7043	-0.200766	0.006	-0.434082	0	-0.504726	0	-5.07493	261.364	58.9527	-0.190694	0.006	-0.97126	0	1.4964	0	0	0	0	0	0	0	0	0	0
9.81	-0.748487	241.239	-55.9081	-0.201446	0.006	-0.434416	0	-0.530841	0	-4.9493	264.394	58.2575	-0.191723	0.006	-0.970736	0	1.5658	0	0	0	0	0	0	0	0	0	0
9.82	-0.605873	242.379	-55.1665	-0.202233	0.006	-0.434738	0	-0.55843	0	-4.81196	267.68	57.6016	-0.192814	0.006	-0.970205	0	1.63115	0	0	0	0	0	0	0	0	0	0
9.83	-0.463604	243.699	-54.4966	-0.203109	0.006	-0.435036	0	-0.586513	0	-4.6681	271.167	56.9921	-0.193942	0.006	-0.969678	0	1.69172	0	0	0	0	0	0	0	0	0	0
9.84	-0.323502	245.18	-53.9155	-0.204059	0.006	-0.4353	0	-0.614482	0	-4.5214	274.794	56.4373	-0.195085	0.006	-0.969165	0	1.74712	0	0	0	0	0	0	0	0	0	0
9.85	-0.186588	246.808	-53.438	-0.205068	0.006	-0.435524	0	-0.642132	0	-4.37386	278.495	55.9467	-0.196225	0.006	-0.968675	0	1.7975	0	0	0	0	0	0	0	0	0	0
9.86	-0.0510289	248.578	-53.0757	-0.206126	0.006	-0.435704	0	-0.669701	0	-4.22689	282.206	55.5299	-0.197348	0.006	-0.968217	0	1.84347	0	0	0	0	0	0	0	0	0	0
9.87	0.0865466	250.487	-52.8363	-0.207223	0.006	-0.435839	0	-0.697772	0	-4.08081	285.864	55.1941	-0.198443	0.006	-0.967797	0	1.88587	0	0	0	0	0	0	0	0	0	0
9.88	0.228849	252.534	-52.723	-0.208349	0.006	-0.435933	0	-0.727166	0	-3.93379	289.408	54.9418	-0.199503	0.006	-0.967418	0	1.92559	0	0	0	0	0	0	0	0	0	0
9.89	0.378972	254.713	-52.7321	-0.209497	0.006	-0.435989	0	-0.758855	0	-3.78125	292.779	54.7702	-0.200525	0.006	-0.967086	0	1.9636	0	0	0	0	0	0	0	0	0	0
9.9	0.541952	257.014	-52.852	-0.210658	0.006	-0.436015	0	-0.793901	0	-3.61572	295.924	54.6713	-0.201504	0.006	-0.966799	0	2.0007	0	0	0	0	0	0	0	0	0	0
9.91	0.724517	259.424	-53.0639	-0.211824	0.006	-0.43602	0	-0.833359	0	-3.42781	298.798	54.6334	-0.20244	0.006	-0.966557	0	2.03738	0	0	0	0	0	0	0	0	0	0
9.92	0.933546	261.923	-53.3431	-0.212982	0.006	-0.436011	0	-0.878082	0	-3.20826	301.36	54.642	-0.203331	0.006	-0.966359	0	2.07389	0	0	0	0	0	0	0	0	0	0
9.93	1.1731	264.487	-53.6625	-0.214122	0.006	-0.436	0	-0.928532	0	-2.95067	303.581	54.6818	-0.204175	0.006	-0.9662	0	2.11023	0	0	0	0	0	0	0	0	0	0
9.94	1.4429	267.089	-53.9963	-0.215228	0.006	-0.435995	0	-0.984792	0	-2.65236	305.45	54.7387	-0.204969	0.006	-0.966078	0	2.14623	0	0	0	0	0	0	0	0	0	0
9.95	1.73909	269.702	-54.3218	-0.216287	0.006	-0.436004	0	-1.04659	0	-2.31349	306.979	54.8009	-0.20571	0.006	-0.965989	0	2.18179	0	0	0	0	0	0	0	0	0	0
9.96	2.05431	272.299	-54.621	-0.217288	0.006	-0.436029	0	-1.11337	0	-1.93706	308.206	54.8609	-0.206397	0.006	-0.965927	0	2.21683	0	0	0	0	0	0	0	0	0	0
9.97	2.37802	274.856	-54.8824	-0.218218	0.006	-0.436071	0	-1.18423	0	-1.52846	309.191	54.9154	-0.207027	0.006	-0.965888	0	2.25131	0	0	0	0	0	0	0	0	0	0
9.98	2.6984	277.35	-55.1018	-0.219069	0.006	-0.436127	0	-1.25799	0	-1.0945	310.009	54.9652	-0.207599	0.006	-0.965865	0	2.28511	0	0	0	0	0	0	0	0	0	0
9.99	3.00355	279.753	-55.281	-0.219833	0.006	-0.436194	0	-1.33337	0	-0.643063	310.742	55.015	-0.208111	0.006	-0.965856	0	2.31801	0	0	0	0	0	0	0	0	0	0
10	3.28021	282.038	-55.4263	-0.220508	0.006	-0.436269	0	-1.40898	0	-0.184691	311.47	55.0731	-0.208559	0.006	-0.965855	0	2.34956	0	0	0	0	0	0	0	0	0	0
10.01	3.51261	284.178	-55.5465	-0.22109	0.006	-0.436348	0	-1.48327	0	0.265122	312.271	55.1508	-0.208942	0.006	-0.965863	0	2.3792	0	0	0	0	0	0	0	0	0	0
10.02	3.68254	286.157	-55.6519	-0.221577	0.006	-0.436431	0	-1.55468	0	0.686021	313.203	55.2603	-0.209253	0.006	-0.965876	0	2.40638	0	0	0	0	0	0	0	0	0	0
10.03	3.7715	287.966	-55.753	-0.221966	0.006	-0.436515	0	-1.62177	0	1.05337	314.303	55.4108	-0.209486	0.006	-0.965897	0	2.43056	0	0	0	0	0	0	0	0	0	0
10.04	3.76365	289.599	-55.8586	-0.222255	0.006	-0.436597	0	-1.68346	0	1.33914	315.579	55.6065	-0.209632	0.006	-0.965923	0	2.45126	0	0	0	0	0	0	0	0	0	0
10.05	3.64903	291.048	-55.9741	-0.222445	0.006	-0.436677	0	-1.7393	0	1.51514	317.002	55.8439	-0.209684	0.006	-0.965957	0	2.4683	0	0	0	0	0	0	0	0	0	0
10.06	3.42522	292.303	-56.1004	-0.222539	0.006	-0.436752	0	-1.78944	0	1.55782	318.517	56.1121	-0.209636	0.006	-0.965997	0	2.48192	0	0	0	0	0	0	0	0	0	0
10.07	3.09815	293.358	-56.234	-0.222541	0.006	-0.436823	0	-1.83455	0	1.45211	320.051	56.394	-0.209488	0.006	-0.966042	0	2.49281	0	0	0	0	0	0	0	0	0	0
10.08	2.68207	294.209	-56.3677	-0.22246	0.006	-0.436888	0	-1.87563	0	1.19376	321.529	56.6688	-0.209246	0.006	-0.966091	0	2.50185	0	0	0	0	0	0	0	0	0	0
10.09	2.19838	294.858	-56.4925	-0.222307	0.006	-0.436949	0	-1.91385	0	0.790693	322.882	56.9157	-0.20892	0.006	-0.966141	0	2.51005	0	0	0	0	0	0	0	0	0	0
10.1	1.67421	295.316	-56.5983	-0.222095	0.006	-0.437005	0	-1.95038	0	0.262884	324.059	57.117	-0.208524	0.006	-0.966193	0	2.51841	0	0	0	0	0	0	0	0	0	0
10.11	1.14038	295.591	-56.675	-0.221838	0.006	-0.437055	0	-1.98615	0	-0.35843	325.03	57.2599	-0.208077	0.006	-0.966242	0	2.52777	0	0	0	0	0	0	0	0	0	0
10.12	0.62954	295.695	-56.7145	-0.221555	0.006	-0.437102	0	-2.02169	0	-1.0328	325.78	57.3377	-0.207601	0.006	-0.966289	0	2.53872	0	0	0	0	0	0	0	0	0	0
10.13	0.174485	295.642	-56.7123	-0.221265	0.006	-0.437146	0	-2.05691	0	-1.71452	326.316	57.3498	-0.207121	0.006	-0.966331	0	2.5516	0	0	0	0	0	0	0	0	0	0
10.14	-0.194535	295.449	-56.6685	-0.22099	0.006	-0.437189	0	-2.09135	0	-2.35686	326.659	57.3015	-0.206662	0.006	-0.966368	0	2.56641	0	0	0	0	0	0	0	0	0	0
10.15	-0.453535	295.136	-56.5868	-0.220746	0.006	-0.437229	0	-2.12421	0	-2.91752	326.846	57.2031	-0.206248	0.006	-0.966399	0	2.58267	0	0	0	0	0	0	0	0	0	0
10.16	-0.587522	294.721	-56.4741	-0.220545	0.006	-0.437265	0	-2.15447	0	-3.36366	326.926	57.0699	-0.205899	0.006	-0.966427	0	2.59949	0	0	0	0	0	0	0	0	0	0
10.17	-0.592011	294.223	-56.3386	-0.220389	0.006	-0.437296	0	-2.18108	0	-3.67445	326.955	56.9197	-0.205625	0.006	-0.966451	0	2.61559	0	0	0	0	0	0	0	0	0	0
10.18	-0.473086	293.654	-56.1895	-0.220271	0.006	-0.437318	0	-2.20329	0	-3.84136	326.984	56.7712	-0.205433	0.006	-0.966474	0	2.62958	0	0	0	0	0	0	0	0	0	0
10.19	-0.246568	293.022	-56.0352	-0.220177	0.006	-0.437329	0	-2.22054	0	-3.8672	327.054	56.6404	-0.205321	0.006	-0.966497	0	2.64018	0	0	0	0	0	0	0	0	0	0
10.2	0.0645657	292.336	-55.8831	-0.220088	0.006	-0.437328	0	-2.23247	0	-3.76444	327.193	56.5398	-0.20528	0.006	-0.966523	0	2.64641	0	0	0	0	0	0	0	0	0	0
10.21	0.432428	291.608	-55.7398	-0.21998	0.006	-0.437311	0	-2.23886	0	-3.55368	327.411	56.4773	-0.205295	0.006	-0.966552	0	2.64756	0	0	0	0	0	0	0	0	0	0
10.22	0.826674	290.85	-55.6101	-0.219827	0.006	-0.437275	0	-2.23972	0	-3.26155	327.7	56.4549	-0.205346	0.006	-0.966587	0	2.64328	0	0	0	0	0	0	0	0	0	0
10.23	1.2173	290.077	-55.4969	-0.219607	0.006	-0.437221	0	-2.23523	0	-2.91784	328.04	56.4689	-0.20541	0.006	-0.966629	0	2.63367	0	0	0	0	0	0	0	0	0	0
10.24	1.57758	289.302	-55.4011	-0.219303	0.006	-0.437147	0	-2.22588	0	-2.55265	328.404	56.5113	-0.205465	0.006	-0.966675	0	2.61922	0	0	0	0	0	0	0	0	0	0
10.25	1.88676	288.533	-55.3218	-0.218903	0.006	-0.437057	0	-2.21236	0	-2.19396	328.759	56.5713	-0.205489	0.006	-0.966726	0	2.60075	0	0	0	0	0	0	0	0	0	0
10.26	2.13124	287.775	-55.2564	-0.218403	0.006	-0.436955	0	-2.19546	0	-1.86604	329.08	56.6371	-0.205462	0.006	-0.96678	0	2.57931	0	0	0	0	0	0	0	0	0	0
10.27	2.3037	287.033	-55.2016	-0.217807	0.006	-0.436844	0	-2.17604	0	-1.58901	329.35	56.6981	-0.20537	0.006	-0.966833	0	2.55614	0	0	0	0	0	0	0	0	0	0
10.28	2.40136	286.309	-55.1539	-0.217121	0.006	-0.436729	0	-2.15486	0	-1.37898	329.565	56.7465	-0.205199	0.006	-0.966884	0	2.53249	0	0	0	0	0	0	0	0	0	0
10.29	2.4243	285.612	-55.11	-0.216355	0.006	-0.436611	0	-2.13266	0	-1.24815	329.733	56.778	-0.204943	0.006	-0.966934	0	2.50961	0	0	0	0	0	0	0	0	0	0
10.3	2.374	284.945	-55.0677	-0.215521	0.006	-0.436496	0	-2.1101	0	-1.20488	329.871	56.7924	-0.204598	0.006	-0.966981	0	2.48863	0	0	0	0	0	0	0	0	0	0
10.31	2.25249	284.314	-55.0263	-0.214631	0.006	-0.436385	0	-2.0877	0	-1.25346	329.998	56.7922	-0.204165	0.006	-0.967027	0	2.47037	0	0	0	0	0	0	0	0	0	0
10.32	2.06294	283.723	-54.9862	-0.213702	0.006	-0.43628	0	-2.0659	0	-1.39403	330.127	56.7822	-0.20365	0.006	-0.967072	0	2.45533	0	0	0	0	0	0	0	0	0	0
10.33	1.81026	283.173	-54.9496	-0.212748	0.006	-0.436182	0	-2.04502	0	-1.6229	330.268	56.7677	-0.203063	0.006	-0.967118	0	2.44361	0	0	0	0	0	0	0	0	0	0
10.34	1.50134	282.667	-54.9189	-0.211789	0.006	-0.43609	0	-2.02528	0	-1.93353	330.418	56.7538	-0.202417	0.006	-0.967166	0	2.43489	0	0	0	0	0	0	0	0	0	0
10.35	1.14442	282.206	-54.8966	-0.210839	0.006	-0.436005	0	-2.00669	0	-2.31777	330.573	56.7441	-0.201722	0.006	-0.967216	0	2.42856	0	0	0	0	0	0	0	0	0	0
